<?xml version="1.0" encoding="UTF-8" standalone="yes"?>
<svg xmlns="http://www.w3.org/2000/svg" viewBox="0 0 512 512" class="undefined ns-fill-0" fill="#2a3645" width="32" height="32">
  <title>ionicons-v5-e</title>
  <path d="M298.39,248a4,4,0,0,0,2.86-6.8l-78.4-79.72a4,4,0,0,0-6.85,2.81V236a12,12,0,0,0,12,12Z"/>
  <path d="M197 267A43.67 43.67 0 01184 236V144H112a64.19 64.19 0 00-64 64V432a64 64 0 0064 64H256a64 64 0 0064-64V280H228A43.61 43.61 0 01197 267zM372 120h70.39a4 4 0 002.86-6.8l-78.4-79.72A4 4 0 00360 36.29V108A12 12 0 00372 120z"/>
  <path d="M372,152a44.34,44.34,0,0,1-44-44V16H220a60.07,60.07,0,0,0-60,60v36h42.12A40.81,40.81,0,0,1,231,124.14l109.16,111a41.11,41.11,0,0,1,11.83,29V400h53.05c32.51,0,58.95-26.92,58.95-60V152Z"/>
</svg>